<svg width="185" height="178" viewBox="0 0 185 178" fill="none" xmlns="http://www.w3.org/2000/svg">
  <rect width="185" height="178" fill="url(#paint0_linear_5_3)" />
  <path
    d="M94 116.134C94 134.599 79.6731 148 62 148C44.3269 148 30 134.599 30 116.134C30 105.565 33.9771 97.8705 42.0231 90.0149C50.4285 81.8084 62 78 71.9672 78C81.9344 78 90.3279 84.2687 90.3279 84.2687C90.3279 84.2687 84.0328 84.2687 81.4098 85.8358C79.1161 87.2063 81.4098 90.0149 81.4098 90.0149C89.6578 96.0622 94 104.807 94 116.134Z"
    fill="white"
  />
  <path
    d="M91 61.8657C91 43.4012 105.327 30 123 30C140.673 30 155 43.4012 155 61.8657C155 72.4348 151.023 80.1295 142.977 87.9851C134.571 96.1916 123 100 113.033 100C103.066 100 94.6721 93.7313 94.6721 93.7313C94.6721 93.7313 100.967 93.7313 103.59 92.1642C105.884 90.7937 103.59 87.9851 103.59 87.9851C95.3422 81.9378 91 73.1926 91 61.8657Z"
    fill="white"
  />
  <defs>
    <linearGradient
      id="paint0_linear_5_3"
      x1="-8.02296"
      y1="80.3282"
      x2="201.988"
      y2="82.7682"
      gradientUnits="userSpaceOnUse"
    >
      <stop stop-color="#FF883B" />
      <stop offset="1" stop-color="#FA2F62" />
    </linearGradient>
  </defs>
</svg>
