<svg width="22" height="22" viewBox="0 0 22 22" fill="none" xmlns="http://www.w3.org/2000/svg">
<g id="Group 11 Copy 2">
<path id="Fill 1" fill-rule="evenodd" clip-rule="evenodd" d="M21.7861 8.84572H20.8997V8.79989H10.9999V13.1998H17.2175C16.3091 15.761 13.8727 17.5998 10.9999 17.5998C7.35524 17.5998 4.39994 14.6454 4.39994 10.9999C4.39994 7.35524 7.35524 4.39994 10.9999 4.39994C12.6819 4.39994 14.2127 5.03427 15.3787 6.07192L18.4899 2.95988C16.5255 1.12932 13.8983 0 10.9999 0C4.92519 0 0 4.92519 0 10.9999C0 17.0745 4.92519 21.9997 10.9999 21.9997C17.0745 21.9997 21.9997 17.0745 21.9997 10.9999C21.9997 10.262 21.9236 9.54238 21.7861 8.84572Z" fill="#FFC107"/>
<g id="Group 6">
<mask id="mask0" mask-type="alpha" maskUnits="userSpaceOnUse" x="1" y="0" width="18" height="9">
<path id="Clip 5" fill-rule="evenodd" clip-rule="evenodd" d="M1.26904 0H18.4902V8.53094H1.26904V0Z" fill="white"/>
</mask>
<g mask="url(#mask0)">
<path id="Fill 4" fill-rule="evenodd" clip-rule="evenodd" d="M1.26904 5.87985L4.8825 8.53082C5.86057 6.10902 8.22921 4.39946 11.0003 4.39946C12.6823 4.39946 14.2131 5.0347 15.3791 6.07144L18.4902 2.95939C16.5259 1.12883 13.8978 -0.000488281 11.0003 -0.000488281C6.77539 -0.000488281 3.11152 2.38465 1.26904 5.87985Z" fill="#FF3D00"/>
</g>
</g>
<path id="Fill 7" fill-rule="evenodd" clip-rule="evenodd" d="M11.0001 22.0001C13.8418 22.0001 16.4231 20.912 18.3746 19.1447L14.9702 16.2637C13.8665 17.0997 12.4934 17.6002 11.0001 17.6002C8.13927 17.6002 5.71013 15.776 4.79439 13.2305L1.20752 15.9933C3.028 19.5563 6.72487 22.0001 11.0001 22.0001Z" fill="#4CAF50"/>
<path id="Fill 9" fill-rule="evenodd" clip-rule="evenodd" d="M21.7863 8.84564H20.8999V8.7998H11V13.1997H17.2177C16.7813 14.4299 15.9903 15.4914 14.9691 16.2632C14.9691 16.2632 14.97 16.2632 14.97 16.2623L18.3745 19.1433C18.1343 19.3624 21.9999 16.4997 21.9999 10.9998C21.9999 10.2619 21.9238 9.5423 21.7863 8.84564Z" fill="#1976D2"/>
</g>
</svg>
